<?xml version="1.0" encoding="UTF-8"?>
<svg xmlns="http://www.w3.org/2000/svg" xmlns:xlink="http://www.w3.org/1999/xlink" width="512px" height="512px" viewBox="0 0 256 256" version="1.1">
<g id="surface1">
<path style=" stroke:none;fill-rule:nonzero;fill:rgb(88.627451%,10.588235%,10.588235%);fill-opacity:1;" d="M 256 128 C 256 198.691406 198.691406 256 128 256 C 57.308594 256 0 198.691406 0 128 C 0 57.308594 57.308594 0 128 0 C 198.691406 0 256 57.308594 256 128 Z M 256 128 "/>
<path style=" stroke:none;fill-rule:nonzero;fill:rgb(76.862745%,2.352941%,2.352941%);fill-opacity:1;" d="M 255.140625 142.652344 L 183.957031 71.46875 L 75.125 184.304688 L 145.589844 254.769531 C 203.175781 246.847656 248.527344 200.644531 255.140625 142.652344 Z M 255.140625 142.652344 "/>
<path style=" stroke:none;fill-rule:nonzero;fill:rgb(14.901961%,7.843137%,7.843137%);fill-opacity:1;" d="M 177.1875 185.769531 C 174.628906 185.769531 172.070312 184.792969 170.117188 182.839844 L 73.203125 85.925781 C 69.296875 82.015625 69.296875 75.6875 73.203125 71.785156 C 77.113281 67.878906 83.441406 67.875 87.34375 71.785156 L 184.261719 168.699219 C 188.167969 172.609375 188.167969 178.9375 184.261719 182.839844 C 182.304688 184.792969 179.746094 185.769531 177.1875 185.769531 Z M 177.1875 185.769531 "/>
<path style=" stroke:none;fill-rule:nonzero;fill:rgb(14.901961%,7.843137%,7.843137%);fill-opacity:1;" d="M 80.273438 185.769531 C 77.710938 185.769531 75.15625 184.792969 73.199219 182.839844 C 69.292969 178.933594 69.292969 172.605469 73.199219 168.699219 L 170.117188 71.785156 C 174.023438 67.875 180.351562 67.875 184.257812 71.785156 C 188.160156 75.691406 188.164062 82.019531 184.257812 85.925781 L 87.34375 182.839844 C 85.390625 184.792969 82.832031 185.769531 80.273438 185.769531 Z M 80.273438 185.769531 "/>
</g>
</svg>
