<?xml version="1.0" encoding="UTF-8"?>
<svg xmlns="http://www.w3.org/2000/svg" xmlns:xlink="http://www.w3.org/1999/xlink" width="512px" height="512px" viewBox="0 0 256 256" version="1.1">
<g id="surface1">
<path style=" stroke:none;fill-rule:nonzero;fill:rgb(13.72549%,58.039216%,73.72549%);fill-opacity:1;" d="M 115.59375 183.394531 C 125.097656 192.898438 130.511719 193.265625 140.398438 183.394531 L 213.078125 108.894531 C 219.902344 97.398438 214.320312 88 200.679688 88 L 168 88 L 168 16 C 168 7.167969 160.832031 0 152 0 L 104 0 C 95.167969 0 88 7.167969 88 16 L 88 88 L 55.3125 88 C 41.671875 88 36.089844 97.40625 42.914062 108.894531 Z M 240 216 L 16 216 C 7.167969 216 0 223.167969 0 232 L 0 240 C 0 248.839844 7.167969 256 16 256 L 240 256 C 248.832031 256 256 248.839844 256 240 L 256 232 C 256 223.167969 248.832031 216 240 216 Z M 240 216 "/>
</g>
</svg>
