<?xml version="1.0" encoding="UTF-8"?>
<svg xmlns="http://www.w3.org/2000/svg" xmlns:xlink="http://www.w3.org/1999/xlink" width="512px" height="512px" viewBox="0 0 256 256" version="1.1">
<g id="surface1">
<path style=" stroke:none;fill-rule:nonzero;fill:rgb(14.901961%,65.098039%,81.960784%);fill-opacity:1;" d="M 167.933594 4.238281 L 251.757812 88.0625 C 257.40625 93.710938 257.40625 102.878906 251.757812 108.527344 L 108.519531 251.757812 C 102.871094 257.414062 93.703125 257.414062 88.054688 251.757812 L 4.238281 167.933594 C -1.410156 162.285156 -1.410156 153.121094 4.238281 147.472656 L 147.46875 4.238281 C 153.125 -1.414062 162.285156 -1.414062 167.933594 4.238281 Z M 167.933594 4.238281 "/>
<path style=" stroke:none;fill-rule:nonzero;fill:rgb(88.627451%,34.117647%,29.803922%);fill-opacity:1;" d="M 77.109375 74.601562 L 4.238281 147.472656 C -1.410156 153.121094 -1.410156 162.285156 4.238281 167.933594 L 88.0625 251.757812 C 93.710938 257.414062 102.882812 257.414062 108.53125 251.757812 L 181.402344 178.894531 Z M 77.109375 74.601562 "/>
<path style=" stroke:none;fill-rule:nonzero;fill:rgb(79.607843%,30.588235%,26.666667%);fill-opacity:1;" d="M 37.105469 114.609375 L 4.238281 147.472656 C -1.410156 153.121094 -1.410156 162.285156 4.238281 167.933594 L 88.0625 251.757812 C 93.710938 257.414062 102.882812 257.414062 108.53125 251.757812 L 141.398438 218.898438 Z M 37.105469 114.609375 "/>
<path style=" stroke:none;fill-rule:nonzero;fill:rgb(37.647059%,37.254902%,37.254902%);fill-opacity:1;" d="M 18.667969 133.074219 L 122.933594 237.339844 L 113.28125 246.988281 L 9.015625 142.722656 Z M 18.667969 133.074219 "/>
</g>
</svg>
