<?xml version="1.0" encoding="UTF-8"?>
<svg xmlns="http://www.w3.org/2000/svg" xmlns:xlink="http://www.w3.org/1999/xlink" width="512px" height="512px" viewBox="0 0 256 256" version="1.1">
<g id="surface1">
<path style=" stroke:none;fill-rule:nonzero;fill:rgb(94.509804%,27.843137%,25.882353%);fill-opacity:1;" d="M 80.488281 4.128906 C 122.664062 4.128906 156.851562 38.316406 156.851562 80.492188 C 156.851562 122.664062 122.664062 156.851562 80.488281 156.851562 C 38.316406 156.851562 4.128906 122.664062 4.128906 80.492188 C 4.128906 38.316406 38.316406 4.128906 80.488281 4.128906 Z M 80.488281 4.128906 "/>
<path style=" stroke:none;fill-rule:nonzero;fill:rgb(92.54902%,90.588235%,91.764706%);fill-opacity:1;" d="M 80.488281 20.480469 C 113.632812 20.480469 140.5 47.347656 140.5 80.492188 C 140.5 113.632812 113.632812 140.5 80.488281 140.5 C 47.347656 140.5 20.480469 113.632812 20.480469 80.492188 C 20.480469 47.347656 47.347656 20.480469 80.488281 20.480469 Z M 80.488281 20.480469 "/>
<path style=" stroke:none;fill-rule:nonzero;fill:rgb(10.588235%,25.490196%,27.058824%);fill-opacity:1;" d="M 188.703125 164.675781 L 248.882812 224.859375 C 255.152344 231.125 251.191406 237.925781 244.558594 244.558594 C 237.925781 251.191406 231.125 255.152344 224.859375 248.882812 L 164.675781 188.703125 L 169.332031 169.332031 Z M 188.703125 164.675781 "/>
<path style=" stroke:none;fill-rule:nonzero;fill:rgb(76.078431%,72.156863%,72.54902%);fill-opacity:1;" d="M 183.300781 158.996094 L 190.628906 166.328125 L 166.601562 190.355469 L 159.273438 183.023438 C 153.003906 176.757812 153.300781 166.292969 159.933594 159.660156 C 166.566406 153.023438 177.03125 152.726562 183.300781 158.996094 Z M 183.300781 158.996094 "/>
<path style=" stroke:none;fill-rule:nonzero;fill:rgb(0%,0%,0%);fill-opacity:1;" d="M 0 80.488281 C 0 124.871094 36.105469 160.976562 80.488281 160.976562 C 124.871094 160.976562 160.976562 124.871094 160.976562 80.488281 C 160.976562 36.109375 124.871094 0 80.488281 0 C 36.105469 0 0 36.109375 0 80.488281 Z M 152.71875 80.488281 C 152.71875 120.316406 120.316406 152.71875 80.488281 152.71875 C 40.660156 152.71875 8.257812 120.316406 8.257812 80.488281 C 8.257812 40.660156 40.660156 8.257812 80.488281 8.257812 C 120.316406 8.257812 152.71875 40.660156 152.71875 80.488281 Z M 152.71875 80.488281 "/>
<path style=" stroke:none;fill-rule:nonzero;fill:rgb(0%,0%,0%);fill-opacity:1;" d="M 46.933594 114.046875 C 48.546875 115.660156 51.160156 115.65625 52.773438 114.046875 C 53.578125 113.238281 53.980469 112.183594 53.980469 111.125 C 53.980469 110.070312 53.578125 109.011719 52.773438 108.207031 C 45.367188 100.804688 41.289062 90.960938 41.289062 80.488281 C 41.289062 70.019531 45.367188 60.175781 52.773438 52.773438 C 54.382812 51.160156 54.382812 48.546875 52.773438 46.933594 C 51.160156 45.320312 48.546875 45.320312 46.933594 46.933594 C 37.96875 55.894531 33.03125 67.8125 33.03125 80.488281 C 33.03125 93.164062 37.96875 105.082031 46.933594 114.046875 Z M 46.933594 114.046875 "/>
<path style=" stroke:none;fill-rule:nonzero;fill:rgb(0%,0%,0%);fill-opacity:1;" d="M 139.308594 145.148438 L 155.1875 161.027344 C 149.710938 169.230469 150.585938 180.453125 157.820312 187.6875 L 221.488281 251.355469 C 226.71875 256.585938 232.058594 256.464844 235.621094 255.441406 C 239.34375 254.371094 243.109375 251.839844 247.476562 247.476562 C 251.84375 243.109375 254.371094 239.34375 255.441406 235.621094 C 255.765625 234.488281 256 233.175781 256 231.746094 C 256 228.675781 254.921875 225.054688 251.355469 221.488281 L 195.449219 165.582031 C 195.449219 165.582031 195.449219 165.578125 195.445312 165.578125 C 195.445312 165.574219 195.441406 165.574219 195.441406 165.570312 L 187.6875 157.820312 C 183.699219 153.828125 178.394531 151.632812 172.753906 151.632812 C 168.515625 151.632812 164.464844 152.871094 161.023438 155.183594 L 145.148438 139.308594 C 143.535156 137.695312 140.921875 137.695312 139.308594 139.308594 C 137.695312 140.921875 137.695312 143.535156 139.308594 145.148438 Z M 245.515625 227.328125 C 248.15625 229.964844 250.027344 233.242188 241.636719 241.636719 C 233.246094 250.027344 229.964844 248.15625 227.328125 245.515625 L 174.335938 192.527344 L 192.527344 174.335938 Z M 181.847656 163.660156 L 186.6875 168.496094 L 168.496094 186.6875 L 163.660156 181.847656 C 158.644531 176.832031 158.644531 168.671875 163.660156 163.660156 C 166.089844 161.230469 169.316406 159.890625 172.753906 159.890625 C 176.1875 159.890625 179.417969 161.230469 181.847656 163.660156 Z M 181.847656 163.660156 "/>
<path style=" stroke:none;fill-rule:nonzero;fill:rgb(0%,0%,0%);fill-opacity:1;" d="M 84.660156 20.480469 C 84.347656 22.738281 85.925781 24.820312 88.1875 25.132812 C 115.65625 28.914062 136.371094 52.710938 136.371094 80.488281 C 136.371094 111.300781 111.300781 136.371094 80.488281 136.371094 C 49.675781 136.371094 24.609375 111.300781 24.609375 80.488281 C 24.609375 52.710938 45.324219 28.914062 72.792969 25.132812 C 75.050781 24.824219 76.632812 22.738281 76.320312 20.480469 C 76.011719 18.21875 73.925781 16.640625 71.667969 16.953125 C 56.457031 19.046875 42.472656 26.582031 32.289062 38.171875 C 22.011719 49.871094 16.351562 64.898438 16.351562 80.488281 C 16.351562 115.855469 45.121094 144.628906 80.488281 144.628906 C 115.855469 144.628906 144.628906 115.855469 144.628906 80.488281 C 144.628906 64.898438 138.96875 49.871094 128.691406 38.171875 C 118.507812 26.582031 104.523438 19.046875 89.3125 16.953125 C 87.050781 16.640625 84.96875 18.21875 84.660156 20.480469 Z M 84.660156 20.480469 "/>
</g>
</svg>
