<?xml version="1.0" encoding="UTF-8"?>
<svg xmlns="http://www.w3.org/2000/svg" xmlns:xlink="http://www.w3.org/1999/xlink" width="512px" height="512px" viewBox="0 0 256 256" version="1.1">
<g id="surface1">
<path style=" stroke:none;fill-rule:nonzero;fill:rgb(0%,0%,0%);fill-opacity:1;" d="M 253.285156 121.574219 L 216.710938 85 C 214.90625 83.191406 212.761719 82.289062 210.285156 82.289062 C 207.808594 82.289062 205.667969 83.191406 203.855469 85 C 202.046875 86.8125 201.140625 88.957031 201.140625 91.429688 L 201.140625 109.71875 L 146.285156 109.71875 L 146.285156 54.859375 L 164.570312 54.859375 C 167.046875 54.859375 169.191406 53.957031 171 52.148438 C 172.808594 50.335938 173.714844 48.195312 173.714844 45.71875 C 173.714844 43.242188 172.808594 41.097656 171 39.289062 L 134.429688 2.714844 C 132.621094 0.90625 130.476562 0.00390625 128 0.00390625 C 125.523438 0.00390625 123.378906 0.90625 121.570312 2.714844 L 85 39.289062 C 83.1875 41.097656 82.285156 43.242188 82.285156 45.71875 C 82.285156 48.191406 83.191406 50.335938 85 52.148438 C 86.808594 53.957031 88.953125 54.859375 91.429688 54.859375 L 109.714844 54.859375 L 109.714844 109.71875 L 54.859375 109.71875 L 54.859375 91.433594 C 54.859375 88.953125 53.953125 86.8125 52.144531 85.003906 C 50.332031 83.191406 48.1875 82.289062 45.714844 82.289062 C 43.238281 82.289062 41.09375 83.191406 39.285156 85.003906 L 2.714844 121.574219 C 0.90625 123.382812 0 125.523438 0 128 C 0 130.476562 0.90625 132.621094 2.714844 134.429688 L 39.285156 171 C 41.09375 172.808594 43.238281 173.71875 45.714844 173.71875 C 48.191406 173.71875 50.332031 172.808594 52.144531 171 C 53.953125 169.191406 54.859375 167.046875 54.859375 164.570312 L 54.859375 146.285156 L 109.714844 146.285156 L 109.714844 201.140625 L 91.429688 201.140625 C 88.953125 201.140625 86.808594 202.046875 85 203.855469 C 83.191406 205.664062 82.285156 207.808594 82.285156 210.285156 C 82.285156 212.761719 83.191406 214.902344 85 216.714844 L 121.570312 253.285156 C 123.382812 255.09375 125.527344 255.996094 128.003906 255.996094 C 130.476562 255.996094 132.625 255.09375 134.429688 253.285156 L 171 216.714844 C 172.8125 214.902344 173.714844 212.761719 173.714844 210.285156 C 173.714844 207.808594 172.8125 205.664062 171 203.855469 C 169.191406 202.046875 167.046875 201.140625 164.570312 201.140625 L 146.289062 201.140625 L 146.289062 146.285156 L 201.144531 146.285156 L 201.144531 164.574219 C 201.144531 167.050781 202.046875 169.195312 203.855469 171.003906 C 205.667969 172.8125 207.8125 173.71875 210.289062 173.71875 C 212.761719 173.71875 214.90625 172.8125 216.714844 171.003906 L 253.285156 134.429688 C 255.097656 132.621094 256 130.476562 256 128 C 256 125.523438 255.097656 123.382812 253.285156 121.574219 Z M 253.285156 121.574219 "/>
</g>
</svg>
