<?xml version="1.0" encoding="UTF-8"?>
<svg xmlns="http://www.w3.org/2000/svg" xmlns:xlink="http://www.w3.org/1999/xlink" width="512px" height="512px" viewBox="0 0 256 256" version="1.1">
<g id="surface1">
<path style=" stroke:none;fill-rule:nonzero;fill:rgb(29.019608%,33.72549%,43.137255%);fill-opacity:1;" d="M 29.511719 15.585938 L 178.734375 15.585938 C 194.984375 15.585938 208.25 28.851562 208.25 45.097656 L 208.25 198.632812 C 208.25 214.878906 194.984375 228.144531 178.734375 228.144531 L 29.511719 228.144531 C 13.265625 228.144531 0 214.878906 0 198.632812 L 0 44.765625 C 0 28.851562 13.265625 15.585938 29.511719 15.585938 Z M 29.511719 15.585938 "/>
<path style=" stroke:none;fill-rule:nonzero;fill:rgb(0%,70.980392%,58.039216%);fill-opacity:1;" d="M 96.496094 154.527344 L 52.726562 110.757812 L 0 163.480469 L 0 198.300781 C 0 214.550781 13.265625 227.8125 29.511719 227.8125 L 178.734375 227.8125 C 194.984375 227.8125 208.25 214.550781 208.25 198.300781 L 208.25 141.597656 L 158.839844 91.855469 Z M 96.496094 154.527344 "/>
<path style=" stroke:none;fill-rule:nonzero;fill:rgb(100%,80%,1.176471%);fill-opacity:1;" d="M 113.742188 85.886719 C 113.742188 96.140625 105.425781 104.457031 95.171875 104.457031 C 84.914062 104.457031 76.601562 96.140625 76.601562 85.886719 C 76.601562 75.628906 84.914062 67.316406 95.171875 67.316406 C 105.425781 67.316406 113.742188 75.628906 113.742188 85.886719 Z M 113.742188 85.886719 "/>
<path style=" stroke:none;fill-rule:nonzero;fill:rgb(100%,100%,100%);fill-opacity:1;" d="M 256 192.664062 C 256 219.035156 234.621094 240.414062 208.25 240.414062 C 181.875 240.414062 160.496094 219.035156 160.496094 192.664062 C 160.496094 166.289062 181.875 144.910156 208.25 144.910156 C 234.621094 144.910156 256 166.289062 256 192.664062 Z M 256 192.664062 "/>
<path style=" stroke:none;fill-rule:nonzero;fill:rgb(0%,70.980392%,58.039216%);fill-opacity:1;" d="M 201.285156 170.445312 C 201.285156 166.464844 204.269531 163.480469 208.25 163.480469 C 211.894531 163.480469 215.210938 166.464844 215.210938 170.445312 L 215.210938 215.542969 C 215.210938 219.523438 212.226562 222.507812 208.25 222.507812 C 204.269531 222.507812 201.285156 219.523438 201.285156 215.542969 Z M 201.285156 170.445312 "/>
<path style=" stroke:none;fill-rule:nonzero;fill:rgb(0%,70.980392%,58.039216%);fill-opacity:1;" d="M 203.273438 175.089844 C 200.621094 172.433594 200.621094 168.125 203.273438 165.472656 C 205.925781 162.820312 210.238281 162.820312 212.890625 165.472656 L 228.808594 181.386719 C 231.460938 184.042969 231.460938 188.351562 228.808594 191.003906 C 226.15625 193.65625 221.84375 193.65625 219.191406 191.003906 Z M 203.273438 175.089844 "/>
<path style=" stroke:none;fill-rule:nonzero;fill:rgb(0%,70.980392%,58.039216%);fill-opacity:1;" d="M 203.273438 165.472656 C 205.925781 162.820312 210.238281 162.820312 212.890625 165.472656 C 215.542969 168.125 215.542969 172.433594 212.890625 175.089844 L 197.304688 191.003906 C 194.652344 193.65625 190.34375 193.65625 187.6875 191.003906 C 185.035156 188.351562 185.035156 184.042969 187.6875 181.386719 Z M 203.273438 165.472656 "/>
</g>
</svg>
