<?xml version="1.0" encoding="UTF-8"?>
<svg xmlns="http://www.w3.org/2000/svg" xmlns:xlink="http://www.w3.org/1999/xlink" width="512px" height="512px" viewBox="0 0 256 256" version="1.1">
<g id="surface1">
<path style=" stroke:none;fill-rule:nonzero;fill:rgb(84.313725%,29.019608%,70.588235%);fill-opacity:1;" d="M 180.558594 29.597656 C 193.214844 16.9375 213.742188 16.9375 226.402344 29.597656 C 239.0625 42.257812 239.0625 62.785156 226.402344 75.441406 Z M 180.558594 29.597656 "/>
<path style=" stroke:none;fill-rule:nonzero;fill:rgb(100%,0%,0%);fill-opacity:1;" d="M 192.015625 92.632812 L 87.011719 197.640625 L 84.863281 216.980469 L 200.617188 101.226562 Z M 192.015625 92.632812 "/>
<path style=" stroke:none;fill-rule:nonzero;fill:rgb(100%,0%,0%);fill-opacity:1;" d="M 61.941406 194.058594 L 81.28125 191.910156 L 186.285156 86.902344 L 169.097656 69.710938 L 64.089844 174.71875 Z M 61.941406 194.058594 "/>
<path style=" stroke:none;fill-rule:nonzero;fill:rgb(100%,0%,0%);fill-opacity:1;" d="M 163.367188 63.984375 L 154.769531 55.382812 L 39.019531 171.136719 L 58.359375 168.988281 Z M 163.367188 63.984375 "/>
<path style=" stroke:none;fill-rule:nonzero;fill:rgb(100%,0%,0%);fill-opacity:1;" d="M 217.804688 84.035156 L 226.402344 75.441406 L 180.558594 29.597656 L 171.957031 38.195312 L 171.964844 38.195312 Z M 217.804688 84.035156 "/>
<path style=" stroke:none;fill-rule:nonzero;fill:rgb(100%,0%,0%);fill-opacity:1;" d="M 166.230469 43.925781 L 160.5 49.65625 L 206.34375 95.496094 L 212.074219 89.765625 Z M 166.230469 43.925781 "/>
<path style=" stroke:none;fill-rule:nonzero;fill:rgb(98.431373%,80.784314%,61.568627%);fill-opacity:1;" d="M 78.550781 200.371094 L 57.796875 202.679688 C 57.648438 202.695312 57.5 202.703125 57.355469 202.703125 C 57.355469 202.703125 57.351562 202.703125 57.351562 202.703125 C 57.347656 202.703125 57.347656 202.703125 57.347656 202.703125 C 57.199219 202.703125 57.050781 202.695312 56.902344 202.679688 C 56.746094 202.660156 56.617188 202.574219 56.464844 202.535156 C 56.175781 202.46875 55.894531 202.394531 55.628906 202.265625 C 55.425781 202.167969 55.25 202.050781 55.070312 201.925781 C 54.835938 201.761719 54.628906 201.585938 54.433594 201.382812 C 54.277344 201.21875 54.152344 201.054688 54.027344 200.867188 C 53.875 200.636719 53.746094 200.394531 53.640625 200.132812 C 53.554688 199.914062 53.488281 199.699219 53.441406 199.464844 C 53.410156 199.335938 53.34375 199.226562 53.328125 199.089844 C 53.308594 198.9375 53.367188 198.796875 53.367188 198.644531 C 53.367188 198.492188 53.308594 198.355469 53.328125 198.199219 L 55.632812 177.445312 L 34.878906 179.75 C 34.726562 179.765625 34.574219 179.777344 34.425781 179.777344 C 34.105469 179.777344 33.8125 179.679688 33.507812 179.605469 L 21.894531 228.375 L 30.429688 219.84375 C 32.011719 218.257812 34.574219 218.257812 36.15625 219.84375 C 37.742188 221.425781 37.742188 223.988281 36.15625 225.570312 L 27.625 234.105469 L 76.371094 222.5 C 76.265625 222.058594 76.195312 221.601562 76.25 221.125 Z M 78.550781 200.371094 "/>
<path style=" stroke:none;fill-rule:nonzero;fill:rgb(0%,0%,0%);fill-opacity:1;" d="M 36.15625 219.84375 C 34.574219 218.257812 32.011719 218.257812 30.429688 219.84375 L 21.894531 228.375 L 20.101562 235.898438 L 27.625 234.105469 L 36.15625 225.570312 C 37.738281 223.988281 37.738281 221.425781 36.15625 219.84375 Z M 36.15625 219.84375 "/>
<path style=" stroke:none;fill-rule:nonzero;fill:rgb(94.901961%,92.54902%,74.901961%);fill-opacity:1;" d="M 217.804688 84.035156 L 171.964844 38.195312 L 171.957031 38.195312 L 166.230469 43.925781 L 212.074219 89.765625 Z M 217.804688 84.035156 "/>
<path style=" stroke:none;fill-rule:nonzero;fill:rgb(7.843137%,8.235294%,7.843137%);fill-opacity:1;" d="M 186.285156 86.902344 L 81.28125 191.910156 L 61.941406 194.058594 L 64.089844 174.71875 L 169.097656 69.710938 L 163.367188 63.984375 L 58.359375 168.988281 L 39.019531 171.136719 L 34.425781 175.726562 L 33.503906 179.605469 C 33.808594 179.679688 34.097656 179.777344 34.421875 179.777344 C 34.570312 179.777344 34.722656 179.765625 34.875 179.75 L 55.628906 177.445312 L 53.320312 198.199219 C 53.304688 198.355469 53.363281 198.496094 53.363281 198.644531 C 53.363281 198.800781 53.304688 198.9375 53.320312 199.089844 C 53.339844 199.226562 53.40625 199.335938 53.4375 199.464844 C 53.484375 199.695312 53.554688 199.917969 53.636719 200.132812 C 53.742188 200.390625 53.871094 200.636719 54.023438 200.867188 C 54.144531 201.046875 54.277344 201.222656 54.429688 201.382812 C 54.617188 201.582031 54.832031 201.761719 55.066406 201.925781 C 55.242188 202.050781 55.425781 202.171875 55.625 202.265625 C 55.886719 202.390625 56.171875 202.46875 56.460938 202.535156 C 56.617188 202.574219 56.742188 202.65625 56.898438 202.679688 C 57.046875 202.695312 57.191406 202.703125 57.34375 202.703125 L 57.355469 202.703125 C 57.355469 202.703125 57.359375 202.703125 57.359375 202.703125 C 57.5 202.703125 57.648438 202.695312 57.800781 202.679688 L 78.554688 200.371094 L 76.25 221.125 C 76.195312 221.605469 76.265625 222.058594 76.371094 222.5 L 80.273438 221.574219 L 84.863281 216.984375 L 87.011719 197.644531 L 192.015625 92.636719 Z M 186.285156 86.902344 "/>
<path style=" stroke:none;fill-rule:nonzero;fill:rgb(94.901961%,92.54902%,74.901961%);fill-opacity:1;" d="M 206.34375 95.496094 L 160.5 49.65625 L 154.769531 55.382812 L 163.367188 63.984375 L 169.097656 69.710938 L 186.285156 86.902344 L 192.015625 92.632812 L 200.617188 101.226562 Z M 206.34375 95.496094 "/>
</g>
</svg>
