<?xml version="1.0" encoding="UTF-8"?>
<svg xmlns="http://www.w3.org/2000/svg" xmlns:xlink="http://www.w3.org/1999/xlink" width="512px" height="512px" viewBox="0 0 256 256" version="1.1">
<g id="surface1">
<path style=" stroke:none;fill-rule:nonzero;fill:rgb(100%,90.980392%,61.176471%);fill-opacity:1;" d="M 226.460938 51.691406 L 29.539062 51.691406 C 25.460938 51.691406 22.152344 55 22.152344 59.078125 L 22.152344 233.84375 C 22.152344 246.0625 32.09375 256 44.308594 256 L 211.691406 256 C 223.90625 256 233.847656 246.0625 233.847656 233.84375 L 233.847656 59.078125 C 233.847656 55 230.539062 51.691406 226.460938 51.691406 Z M 226.460938 51.691406 "/>
<path style=" stroke:none;fill-rule:nonzero;fill:rgb(100%,90.980392%,61.176471%);fill-opacity:1;" d="M 226.460938 51.691406 L 128 51.691406 L 128 256 L 211.691406 256 C 223.90625 256 233.847656 246.0625 233.847656 233.84375 L 233.847656 59.078125 C 233.847656 55 230.539062 51.691406 226.460938 51.691406 Z M 226.460938 51.691406 "/>
<path style=" stroke:none;fill-rule:nonzero;fill:rgb(99.215686%,0%,22.745098%);fill-opacity:1;" d="M 211.691406 0 L 44.308594 0 C 32.09375 0 22.152344 9.9375 22.152344 22.152344 L 22.152344 59.078125 C 22.152344 63.15625 25.460938 66.460938 29.539062 66.460938 L 226.460938 66.460938 C 230.539062 66.460938 233.84375 63.15625 233.84375 59.078125 L 233.84375 22.152344 C 233.847656 9.9375 223.90625 0 211.691406 0 Z M 211.691406 0 "/>
<path style=" stroke:none;fill-rule:nonzero;fill:rgb(100%,0%,0%);fill-opacity:1;" d="M 211.691406 0 L 128 0 L 128 66.460938 L 226.460938 66.460938 C 230.539062 66.460938 233.84375 63.15625 233.84375 59.078125 L 233.84375 22.152344 C 233.847656 9.9375 223.90625 0 211.691406 0 Z M 211.691406 0 "/>
<path style=" stroke:none;fill-rule:nonzero;fill:rgb(95.294118%,68.235294%,30.980392%);fill-opacity:1;" d="M 233.335938 154.84375 C 232.230469 152.015625 229.5 150.152344 226.460938 150.152344 L 128 150.152344 C 123.921875 150.152344 120.617188 153.460938 120.617188 157.539062 L 120.617188 248.613281 C 120.617188 251.550781 122.351562 254.203125 125.042969 255.382812 C 125.992188 255.796875 127 256 128 256 C 129.824219 256 131.621094 255.324219 133.015625 254.035156 L 231.476562 162.960938 C 233.707031 160.894531 234.445312 157.675781 233.335938 154.84375 Z M 233.335938 154.84375 "/>
<path style=" stroke:none;fill-rule:nonzero;fill:rgb(62.745098%,62.745098%,64.705882%);fill-opacity:1;" d="M 59.078125 96 L 196.921875 96 C 201 96 204.308594 92.691406 204.308594 88.617188 C 204.308594 84.535156 201 81.230469 196.921875 81.230469 L 59.078125 81.230469 C 55 81.230469 51.691406 84.539062 51.691406 88.617188 C 51.691406 92.691406 55 96 59.078125 96 Z M 59.078125 96 "/>
<path style=" stroke:none;fill-rule:nonzero;fill:rgb(62.745098%,62.745098%,64.705882%);fill-opacity:1;" d="M 196.921875 81.230469 L 128 81.230469 L 128 96 L 196.921875 96 C 201 96 204.308594 92.691406 204.308594 88.617188 C 204.308594 84.535156 201 81.230469 196.921875 81.230469 Z M 196.921875 81.230469 "/>
<path style=" stroke:none;fill-rule:nonzero;fill:rgb(62.745098%,62.745098%,64.705882%);fill-opacity:1;" d="M 196.921875 120.617188 L 59.078125 120.617188 C 55 120.617188 51.691406 123.921875 51.691406 128 C 51.691406 132.078125 55 135.382812 59.078125 135.382812 L 196.921875 135.382812 C 201 135.382812 204.308594 132.078125 204.308594 128 C 204.308594 123.921875 201 120.617188 196.921875 120.617188 Z M 196.921875 120.617188 "/>
<path style=" stroke:none;fill-rule:nonzero;fill:rgb(62.745098%,62.745098%,64.705882%);fill-opacity:1;" d="M 196.921875 120.617188 L 128 120.617188 L 128 135.382812 L 196.921875 135.382812 C 201 135.382812 204.308594 132.078125 204.308594 128 C 204.308594 123.921875 201 120.617188 196.921875 120.617188 Z M 196.921875 120.617188 "/>
<path style=" stroke:none;fill-rule:nonzero;fill:rgb(62.745098%,62.745098%,64.705882%);fill-opacity:1;" d="M 98.460938 160 L 59.078125 160 C 55 160 51.691406 163.304688 51.691406 167.382812 C 51.691406 171.460938 55 174.769531 59.078125 174.769531 L 98.460938 174.769531 C 102.539062 174.769531 105.847656 171.460938 105.847656 167.382812 C 105.847656 163.304688 102.539062 160 98.460938 160 Z M 98.460938 160 "/>
<path style=" stroke:none;fill-rule:nonzero;fill:rgb(90.980392%,56.078431%,13.72549%);fill-opacity:1;" d="M 133.015625 254.035156 L 231.476562 162.960938 C 233.707031 160.894531 234.445312 157.675781 233.335938 154.847656 C 232.230469 152.015625 229.5 150.15625 226.460938 150.15625 L 128 150.15625 L 128 256 C 129.824219 256 131.621094 255.324219 133.015625 254.035156 Z M 133.015625 254.035156 "/>
</g>
</svg>
